<?xml version="1.0" encoding="utf-8" standalone="no"?>
<!DOCTYPE svg PUBLIC "-//W3C//DTD SVG 1.1//EN"
  "http://www.w3.org/Graphics/SVG/1.1/DTD/svg11.dtd">
<svg xmlns:xlink="http://www.w3.org/1999/xlink" width="556.181797pt" height="376.975125pt" viewBox="0 0 556.181797 376.975125" xmlns="http://www.w3.org/2000/svg" version="1.1">
 <metadata>
  <rdf:RDF xmlns:dc="http://purl.org/dc/elements/1.1/" xmlns:cc="http://creativecommons.org/ns#" xmlns:rdf="http://www.w3.org/1999/02/22-rdf-syntax-ns#">
   <cc:Work>
    <dc:type rdf:resource="http://purl.org/dc/dcmitype/StillImage"/>
    <dc:date>2026-05-14T18:59:20.584636</dc:date>
    <dc:format>image/svg+xml</dc:format>
    <dc:creator>
     <cc:Agent>
      <dc:title>Matplotlib v3.9.4, https://matplotlib.org/</dc:title>
     </cc:Agent>
    </dc:creator>
   </cc:Work>
  </rdf:RDF>
 </metadata>
 <defs>
  <style type="text/css">*{stroke-linejoin: round; stroke-linecap: butt}</style>
 </defs>
 <g id="figure_1">
  <g id="patch_1">
   <path d="M 0 376.975125 
L 556.181797 376.975125 
L 556.181797 0 
L 0 0 
z
" style="fill: #ffffff"/>
  </g>
  <g id="axes_1">
   <g id="patch_2">
    <path d="M 53.621797 343.294187 
L 548.981797 343.294187 
L 548.981797 69.118187 
L 53.621797 69.118187 
z
" style="fill: #ffffff"/>
   </g>
   <g id="matplotlib.axis_1">
    <g id="xtick_1">
     <g id="line2d_1">
      <path d="M 113.665433 343.294187 
L 113.665433 69.118187 
" clip-path="url(#pffe102dd4e)" style="fill: none; stroke: #e5e7eb; stroke-width: 0.7; stroke-linecap: square"/>
     </g>
     <g id="line2d_2"/>
     <g id="text_1">
      <text style="fill: #475569; font: 10px 'Helvetica Neue', 'Helvetica', 'Arial', 'DejaVu Sans'; text-anchor: middle" x="113.665433" y="353.934812" transform="rotate(-0 113.665433 353.934812)">50%</text>
     </g>
    </g>
    <g id="xtick_2">
     <g id="line2d_3">
      <path d="M 188.719979 343.294187 
L 188.719979 69.118187 
" clip-path="url(#pffe102dd4e)" style="fill: none; stroke: #e5e7eb; stroke-width: 0.7; stroke-linecap: square"/>
     </g>
     <g id="line2d_4"/>
     <g id="text_2">
      <text style="fill: #475569; font: 10px 'Helvetica Neue', 'Helvetica', 'Arial', 'DejaVu Sans'; text-anchor: middle" x="188.719979" y="353.934812" transform="rotate(-0 188.719979 353.934812)">60%</text>
     </g>
    </g>
    <g id="xtick_3">
     <g id="line2d_5">
      <path d="M 263.774524 343.294187 
L 263.774524 69.118187 
" clip-path="url(#pffe102dd4e)" style="fill: none; stroke: #e5e7eb; stroke-width: 0.7; stroke-linecap: square"/>
     </g>
     <g id="line2d_6"/>
     <g id="text_3">
      <text style="fill: #475569; font: 10px 'Helvetica Neue', 'Helvetica', 'Arial', 'DejaVu Sans'; text-anchor: middle" x="263.774524" y="353.934812" transform="rotate(-0 263.774524 353.934812)">70%</text>
     </g>
    </g>
    <g id="xtick_4">
     <g id="line2d_7">
      <path d="M 338.82907 343.294187 
L 338.82907 69.118187 
" clip-path="url(#pffe102dd4e)" style="fill: none; stroke: #e5e7eb; stroke-width: 0.7; stroke-linecap: square"/>
     </g>
     <g id="line2d_8"/>
     <g id="text_4">
      <text style="fill: #475569; font: 10px 'Helvetica Neue', 'Helvetica', 'Arial', 'DejaVu Sans'; text-anchor: middle" x="338.82907" y="353.934812" transform="rotate(-0 338.82907 353.934812)">80%</text>
     </g>
    </g>
    <g id="xtick_5">
     <g id="line2d_9">
      <path d="M 413.883615 343.294187 
L 413.883615 69.118187 
" clip-path="url(#pffe102dd4e)" style="fill: none; stroke: #e5e7eb; stroke-width: 0.7; stroke-linecap: square"/>
     </g>
     <g id="line2d_10"/>
     <g id="text_5">
      <text style="fill: #475569; font: 10px 'Helvetica Neue', 'Helvetica', 'Arial', 'DejaVu Sans'; text-anchor: middle" x="413.883615" y="353.934812" transform="rotate(-0 413.883615 353.934812)">90%</text>
     </g>
    </g>
    <g id="xtick_6">
     <g id="line2d_11">
      <path d="M 488.938161 343.294187 
L 488.938161 69.118187 
" clip-path="url(#pffe102dd4e)" style="fill: none; stroke: #e5e7eb; stroke-width: 0.7; stroke-linecap: square"/>
     </g>
     <g id="line2d_12"/>
     <g id="text_6">
      <text style="fill: #475569; font: 10px 'Helvetica Neue', 'Helvetica', 'Arial', 'DejaVu Sans'; text-anchor: middle" x="488.938161" y="353.934812" transform="rotate(-0 488.938161 353.934812)">100%</text>
     </g>
    </g>
    <g id="text_7">
     <text style="fill: #1f2937; font: 10.5px 'Helvetica Neue', 'Helvetica', 'Arial', 'DejaVu Sans'; text-anchor: middle" x="301.301797" y="367.579969" transform="rotate(-0 301.301797 367.579969)">Coverage (fraction of experiments with a prediction)</text>
    </g>
   </g>
   <g id="matplotlib.axis_2">
    <g id="ytick_1">
     <g id="line2d_13">
      <path d="M 53.621797 305.476808 
L 548.981797 305.476808 
" clip-path="url(#pffe102dd4e)" style="fill: none; stroke: #e5e7eb; stroke-width: 0.7; stroke-linecap: square"/>
     </g>
     <g id="line2d_14"/>
     <g id="text_8">
      <text style="fill: #475569; font: 10px 'Helvetica Neue', 'Helvetica', 'Arial', 'DejaVu Sans'; text-anchor: end" x="47.621797" y="309.047121" transform="rotate(-0 47.621797 309.047121)">50%</text>
     </g>
    </g>
    <g id="ytick_2">
     <g id="line2d_15">
      <path d="M 53.621797 258.205084 
L 548.981797 258.205084 
" clip-path="url(#pffe102dd4e)" style="fill: none; stroke: #e5e7eb; stroke-width: 0.7; stroke-linecap: square"/>
     </g>
     <g id="line2d_16"/>
     <g id="text_9">
      <text style="fill: #475569; font: 10px 'Helvetica Neue', 'Helvetica', 'Arial', 'DejaVu Sans'; text-anchor: end" x="47.621797" y="261.775397" transform="rotate(-0 47.621797 261.775397)">60%</text>
     </g>
    </g>
    <g id="ytick_3">
     <g id="line2d_17">
      <path d="M 53.621797 210.93336 
L 548.981797 210.93336 
" clip-path="url(#pffe102dd4e)" style="fill: none; stroke: #e5e7eb; stroke-width: 0.7; stroke-linecap: square"/>
     </g>
     <g id="line2d_18"/>
     <g id="text_10">
      <text style="fill: #475569; font: 10px 'Helvetica Neue', 'Helvetica', 'Arial', 'DejaVu Sans'; text-anchor: end" x="47.621797" y="214.503672" transform="rotate(-0 47.621797 214.503672)">70%</text>
     </g>
    </g>
    <g id="ytick_4">
     <g id="line2d_19">
      <path d="M 53.621797 163.661636 
L 548.981797 163.661636 
" clip-path="url(#pffe102dd4e)" style="fill: none; stroke: #e5e7eb; stroke-width: 0.7; stroke-linecap: square"/>
     </g>
     <g id="line2d_20"/>
     <g id="text_11">
      <text style="fill: #475569; font: 10px 'Helvetica Neue', 'Helvetica', 'Arial', 'DejaVu Sans'; text-anchor: end" x="47.621797" y="167.231948" transform="rotate(-0 47.621797 167.231948)">80%</text>
     </g>
    </g>
    <g id="ytick_5">
     <g id="line2d_21">
      <path d="M 53.621797 116.389912 
L 548.981797 116.389912 
" clip-path="url(#pffe102dd4e)" style="fill: none; stroke: #e5e7eb; stroke-width: 0.7; stroke-linecap: square"/>
     </g>
     <g id="line2d_22"/>
     <g id="text_12">
      <text style="fill: #475569; font: 10px 'Helvetica Neue', 'Helvetica', 'Arial', 'DejaVu Sans'; text-anchor: end" x="47.621797" y="119.960224" transform="rotate(-0 47.621797 119.960224)">90%</text>
     </g>
    </g>
    <g id="ytick_6">
     <g id="line2d_23">
      <path d="M 53.621797 69.118187 
L 548.981797 69.118187 
" clip-path="url(#pffe102dd4e)" style="fill: none; stroke: #e5e7eb; stroke-width: 0.7; stroke-linecap: square"/>
     </g>
     <g id="line2d_24"/>
     <g id="text_13">
      <text style="fill: #475569; font: 10px 'Helvetica Neue', 'Helvetica', 'Arial', 'DejaVu Sans'; text-anchor: end" x="47.621797" y="72.6885" transform="rotate(-0 47.621797 72.6885)">100%</text>
     </g>
    </g>
    <g id="text_14">
     <text style="fill: #1f2937; font: 10.5px 'Helvetica Neue', 'Helvetica', 'Arial', 'DejaVu Sans'; text-anchor: middle" x="14.874844" y="206.206187" transform="rotate(-90 14.874844 206.206187)">Precision (within covered experiments)</text>
    </g>
   </g>
   <g id="patch_3">
    <path d="M 53.621797 343.294187 
L 53.621797 69.118187 
" style="fill: none; stroke: #475569; stroke-width: 0.8; stroke-linejoin: miter; stroke-linecap: square"/>
   </g>
   <g id="patch_4">
    <path d="M 53.621797 343.294187 
L 548.981797 343.294187 
" style="fill: none; stroke: #475569; stroke-width: 0.8; stroke-linejoin: miter; stroke-linecap: square"/>
   </g>
   <g id="PathCollection_1">
    <defs>
     <path id="ma0615f1213" d="M 0 6.708204 
C 1.779036 6.708204 3.485448 6.001385 4.743416 4.743416 
C 6.001385 3.485448 6.708204 1.779036 6.708204 0 
C 6.708204 -1.779036 6.001385 -3.485448 4.743416 -4.743416 
C 3.485448 -6.001385 1.779036 -6.708204 0 -6.708204 
C -1.779036 -6.708204 -3.485448 -6.001385 -4.743416 -4.743416 
C -6.001385 -3.485448 -6.708204 -1.779036 -6.708204 0 
C -6.708204 1.779036 -6.001385 3.485448 -4.743416 4.743416 
C -3.485448 6.001385 -1.779036 6.708204 0 6.708204 
z
" style="stroke: #ffffff; stroke-width: 1.5"/>
    </defs>
    <g clip-path="url(#pffe102dd4e)">
     <use xlink:href="#ma0615f1213" x="488.938161" y="294.604312" style="fill: #3b82f6; stroke: #ffffff; stroke-width: 1.5"/>
    </g>
   </g>
   <g id="PathCollection_2">
    <defs>
     <path id="me6f1d6c5a3" d="M 0 6.708204 
C 1.779036 6.708204 3.485448 6.001385 4.743416 4.743416 
C 6.001385 3.485448 6.708204 1.779036 6.708204 0 
C 6.708204 -1.779036 6.001385 -3.485448 4.743416 -4.743416 
C 3.485448 -6.001385 1.779036 -6.708204 0 -6.708204 
C -1.779036 -6.708204 -3.485448 -6.001385 -4.743416 -4.743416 
C -6.001385 -3.485448 -6.708204 -1.779036 -6.708204 0 
C -6.708204 1.779036 -6.001385 3.485448 -4.743416 4.743416 
C -3.485448 6.001385 -1.779036 6.708204 0 6.708204 
z
" style="stroke: #ffffff; stroke-width: 1.5"/>
    </defs>
    <g clip-path="url(#pffe102dd4e)">
     <use xlink:href="#me6f1d6c5a3" x="488.938161" y="298.38605" style="fill: #6366f1; stroke: #ffffff; stroke-width: 1.5"/>
    </g>
   </g>
   <g id="PathCollection_3">
    <defs>
     <path id="m8114edb4e0" d="M 0 6.708204 
C 1.779036 6.708204 3.485448 6.001385 4.743416 4.743416 
C 6.001385 3.485448 6.708204 1.779036 6.708204 0 
C 6.708204 -1.779036 6.001385 -3.485448 4.743416 -4.743416 
C 3.485448 -6.001385 1.779036 -6.708204 0 -6.708204 
C -1.779036 -6.708204 -3.485448 -6.001385 -4.743416 -4.743416 
C -6.001385 -3.485448 -6.708204 -1.779036 -6.708204 0 
C -6.708204 1.779036 -6.001385 3.485448 -4.743416 4.743416 
C -3.485448 6.001385 -1.779036 6.708204 0 6.708204 
z
" style="stroke: #ffffff; stroke-width: 1.5"/>
    </defs>
    <g clip-path="url(#pffe102dd4e)">
     <use xlink:href="#m8114edb4e0" x="488.938161" y="293.658877" style="fill: #94a3b8; stroke: #ffffff; stroke-width: 1.5"/>
    </g>
   </g>
   <g id="PathCollection_4">
    <defs>
     <path id="m3a81e1e804" d="M 0 6.708204 
C 1.779036 6.708204 3.485448 6.001385 4.743416 4.743416 
C 6.001385 3.485448 6.708204 1.779036 6.708204 0 
C 6.708204 -1.779036 6.001385 -3.485448 4.743416 -4.743416 
C 3.485448 -6.001385 1.779036 -6.708204 0 -6.708204 
C -1.779036 -6.708204 -3.485448 -6.001385 -4.743416 -4.743416 
C -6.001385 -3.485448 -6.708204 -1.779036 -6.708204 0 
C -6.708204 1.779036 -6.001385 3.485448 -4.743416 4.743416 
C -3.485448 6.001385 -1.779036 6.708204 0 6.708204 
z
" style="stroke: #ffffff; stroke-width: 1.5"/>
    </defs>
    <g clip-path="url(#pffe102dd4e)">
     <use xlink:href="#m3a81e1e804" x="302.052342" y="213.769663" style="fill: #059669; stroke: #ffffff; stroke-width: 1.5"/>
    </g>
   </g>
   <g id="PathCollection_5">
    <defs>
     <path id="m597dcc443d" d="M 0 6.708204 
C 1.779036 6.708204 3.485448 6.001385 4.743416 4.743416 
C 6.001385 3.485448 6.708204 1.779036 6.708204 0 
C 6.708204 -1.779036 6.001385 -3.485448 4.743416 -4.743416 
C 3.485448 -6.001385 1.779036 -6.708204 0 -6.708204 
C -1.779036 -6.708204 -3.485448 -6.001385 -4.743416 -4.743416 
C -6.001385 -3.485448 -6.708204 -1.779036 -6.708204 0 
C -6.708204 1.779036 -6.001385 3.485448 -4.743416 4.743416 
C -3.485448 6.001385 -1.779036 6.708204 0 6.708204 
z
" style="stroke: #ffffff; stroke-width: 1.5"/>
    </defs>
    <g clip-path="url(#pffe102dd4e)">
     <use xlink:href="#m597dcc443d" x="117.418161" y="131.044146" style="fill: #10b981; stroke: #ffffff; stroke-width: 1.5"/>
    </g>
   </g>
   <g id="text_15">
    <text style="fill: #1f2937; font: 10.5px 'Helvetica Neue', 'Helvetica', 'Arial', 'DejaVu Sans'; text-anchor: end" x="477.679979" y="278.353966" transform="rotate(-0 477.679979 278.353966)">Sonnet 4.6 alone</text>
   </g>
   <g id="text_16">
    <text style="fill: #1f2937; font: 10.5px 'Helvetica Neue', 'Helvetica', 'Arial', 'DejaVu Sans'; text-anchor: end" x="477.679979" y="322.605997" transform="rotate(-0 477.679979 322.605997)">Opus 4.7 alone</text>
   </g>
   <g id="text_17">
    <text style="fill: #1f2937; font: 10.5px 'Helvetica Neue', 'Helvetica', 'Arial', 'DejaVu Sans'; text-anchor: end" x="477.679979" y="296.373291" transform="rotate(-0 477.679979 296.373291)">GPT-4o alone</text>
   </g>
   <g id="text_18">
    <text style="fill: #1f2937; font: 10.5px 'Helvetica Neue', 'Helvetica', 'Arial', 'DejaVu Sans'; text-anchor: end" x="287.041433" y="199.777904" transform="rotate(-0 287.041433 199.777904)">2-of-3 majority</text>
   </g>
   <g id="text_19">
    <text style="fill: #1f2937; font: 10.5px 'Helvetica Neue', 'Helvetica', 'Arial', 'DejaVu Sans'; text-anchor: start" x="132.42907" y="117.031059" transform="rotate(-0 132.42907 117.031059)">All three agree</text>
   </g>
   <g id="patch_5">
    <path d="M 479.775805 291.540356 
Q 395.495735 254.659917 312.444778 218.317329 
" style="fill: none; stroke: #cbd5e1; stroke-width: 1.2; stroke-linecap: round"/>
    <path d="M 315.593771 222.096726 
L 312.444778 218.317329 
L 317.357691 218.065773 
" style="fill: none; stroke: #cbd5e1; stroke-width: 1.2; stroke-linecap: round"/>
   </g>
   <g id="patch_6">
    <path d="M 292.927127 209.681102 
Q 209.734709 172.406662 127.766654 135.680798 
" style="fill: none; stroke: #cbd5e1; stroke-width: 1.2; stroke-linecap: round"/>
    <path d="M 130.882485 139.487581 
L 127.766654 135.680798 
L 132.681579 135.472203 
" style="fill: none; stroke: #cbd5e1; stroke-width: 1.2; stroke-linecap: round"/>
   </g>
  </g>
  <g id="text_20">
   <text style="fill: #0f172a; font: 600 13px 'Helvetica Neue', 'Helvetica', 'Arial', 'DejaVu Sans'; text-anchor: start" x="30.581797" y="16.702187" transform="rotate(-0 30.581797 16.702187)">Cell-line ensemble — precision vs coverage</text>
  </g>
  <g id="text_21">
   <text style="fill: #64748b; font: 9.5px 'Helvetica Neue', 'Helvetica', 'Arial', 'DejaVu Sans'" transform="translate(30.581797 30.676937)">Independent frontier models converge less often on cell lines than on strains;</text>
   <text style="fill: #64748b; font: 9.5px 'Helvetica Neue', 'Helvetica', 'Arial', 'DejaVu Sans'" transform="translate(30.581797 40.894187)">intersecting their predictions trades coverage for precision.</text>
  </g>
 </g>
 <defs>
  <clipPath id="pffe102dd4e">
   <rect x="53.621797" y="69.118187" width="495.36" height="274.176"/>
  </clipPath>
 </defs>
</svg>
