<?xml version="1.0" encoding="utf-8" standalone="no"?>
<!DOCTYPE svg PUBLIC "-//W3C//DTD SVG 1.1//EN"
  "http://www.w3.org/Graphics/SVG/1.1/DTD/svg11.dtd">
<svg xmlns:xlink="http://www.w3.org/1999/xlink" width="566.039453pt" height="376.793437pt" viewBox="0 0 566.039453 376.793437" xmlns="http://www.w3.org/2000/svg" version="1.1">
 <metadata>
  <rdf:RDF xmlns:dc="http://purl.org/dc/elements/1.1/" xmlns:cc="http://creativecommons.org/ns#" xmlns:rdf="http://www.w3.org/1999/02/22-rdf-syntax-ns#">
   <cc:Work>
    <dc:type rdf:resource="http://purl.org/dc/dcmitype/StillImage"/>
    <dc:date>2026-05-25T19:56:34.372180</dc:date>
    <dc:format>image/svg+xml</dc:format>
    <dc:creator>
     <cc:Agent>
      <dc:title>Matplotlib v3.9.4, https://matplotlib.org/</dc:title>
     </cc:Agent>
    </dc:creator>
   </cc:Work>
  </rdf:RDF>
 </metadata>
 <defs>
  <style type="text/css">*{stroke-linejoin: round; stroke-linecap: butt}</style>
 </defs>
 <g id="figure_1">
  <g id="patch_1">
   <path d="M 0 376.793437 
L 566.039453 376.793437 
L 566.039453 0 
L 0 0 
z
" style="fill: #ffffff"/>
  </g>
  <g id="axes_1">
   <g id="patch_2">
    <path d="M 63.479453 333.865859 
L 558.839453 333.865859 
L 558.839453 11.305859 
L 63.479453 11.305859 
z
" style="fill: #ffffff"/>
   </g>
   <g id="matplotlib.axis_1">
    <g id="xtick_1">
     <g id="line2d_1">
      <defs>
       <path id="md99930687d" d="M 0 0 
L 0 6 
" style="stroke: #1f2937; stroke-width: 2"/>
      </defs>
      <g>
       <use xlink:href="#md99930687d" x="115.622611" y="333.865859" style="fill: #1f2937; stroke: #1f2937; stroke-width: 2"/>
      </g>
     </g>
     <g id="text_1">
      <text style="fill: #1f2937; font: 11.5px 'Helvetica Neue', 'Helvetica', 'Arial', 'DejaVu Sans'; text-anchor: middle" x="115.622611" y="351.577578" transform="rotate(-0 115.622611 351.577578)">40%</text>
     </g>
    </g>
    <g id="xtick_2">
     <g id="line2d_2">
      <g>
       <use xlink:href="#md99930687d" x="180.801558" y="333.865859" style="fill: #1f2937; stroke: #1f2937; stroke-width: 2"/>
      </g>
     </g>
     <g id="text_2">
      <text style="fill: #1f2937; font: 11.5px 'Helvetica Neue', 'Helvetica', 'Arial', 'DejaVu Sans'; text-anchor: middle" x="180.801558" y="351.577578" transform="rotate(-0 180.801558 351.577578)">50%</text>
     </g>
    </g>
    <g id="xtick_3">
     <g id="line2d_3">
      <g>
       <use xlink:href="#md99930687d" x="245.980506" y="333.865859" style="fill: #1f2937; stroke: #1f2937; stroke-width: 2"/>
      </g>
     </g>
     <g id="text_3">
      <text style="fill: #1f2937; font: 11.5px 'Helvetica Neue', 'Helvetica', 'Arial', 'DejaVu Sans'; text-anchor: middle" x="245.980506" y="351.577578" transform="rotate(-0 245.980506 351.577578)">60%</text>
     </g>
    </g>
    <g id="xtick_4">
     <g id="line2d_4">
      <g>
       <use xlink:href="#md99930687d" x="311.159453" y="333.865859" style="fill: #1f2937; stroke: #1f2937; stroke-width: 2"/>
      </g>
     </g>
     <g id="text_4">
      <text style="fill: #1f2937; font: 11.5px 'Helvetica Neue', 'Helvetica', 'Arial', 'DejaVu Sans'; text-anchor: middle" x="311.159453" y="351.577578" transform="rotate(-0 311.159453 351.577578)">70%</text>
     </g>
    </g>
    <g id="xtick_5">
     <g id="line2d_5">
      <g>
       <use xlink:href="#md99930687d" x="376.3384" y="333.865859" style="fill: #1f2937; stroke: #1f2937; stroke-width: 2"/>
      </g>
     </g>
     <g id="text_5">
      <text style="fill: #1f2937; font: 11.5px 'Helvetica Neue', 'Helvetica', 'Arial', 'DejaVu Sans'; text-anchor: middle" x="376.3384" y="351.577578" transform="rotate(-0 376.3384 351.577578)">80%</text>
     </g>
    </g>
    <g id="xtick_6">
     <g id="line2d_6">
      <g>
       <use xlink:href="#md99930687d" x="441.517348" y="333.865859" style="fill: #1f2937; stroke: #1f2937; stroke-width: 2"/>
      </g>
     </g>
     <g id="text_6">
      <text style="fill: #1f2937; font: 11.5px 'Helvetica Neue', 'Helvetica', 'Arial', 'DejaVu Sans'; text-anchor: middle" x="441.517348" y="351.577578" transform="rotate(-0 441.517348 351.577578)">90%</text>
     </g>
    </g>
    <g id="xtick_7">
     <g id="line2d_7">
      <g>
       <use xlink:href="#md99930687d" x="506.696295" y="333.865859" style="fill: #1f2937; stroke: #1f2937; stroke-width: 2"/>
      </g>
     </g>
     <g id="text_7">
      <text style="fill: #1f2937; font: 11.5px 'Helvetica Neue', 'Helvetica', 'Arial', 'DejaVu Sans'; text-anchor: middle" x="506.696295" y="351.577578" transform="rotate(-0 506.696295 351.577578)">100%</text>
     </g>
    </g>
    <g id="text_8">
     <text style="fill: #0f172a; font: 12.5px 'Helvetica Neue', 'Helvetica', 'Arial', 'DejaVu Sans'; text-anchor: middle" x="311.159453" y="366.980156" transform="rotate(-0 311.159453 366.980156)">Coverage (fraction of experiments with a prediction)</text>
    </g>
   </g>
   <g id="matplotlib.axis_2">
    <g id="ytick_1">
     <g id="line2d_8">
      <defs>
       <path id="mde2ddd1f56" d="M 0 0 
L -6 0 
" style="stroke: #1f2937; stroke-width: 2"/>
      </defs>
      <g>
       <use xlink:href="#mde2ddd1f56" x="63.479453" y="289.374825" style="fill: #1f2937; stroke: #1f2937; stroke-width: 2"/>
      </g>
     </g>
     <g id="text_9">
      <text style="fill: #1f2937; font: 11.5px 'Helvetica Neue', 'Helvetica', 'Arial', 'DejaVu Sans'; text-anchor: end" x="53.479453" y="293.480684" transform="rotate(-0 53.479453 293.480684)">50%</text>
     </g>
    </g>
    <g id="ytick_2">
     <g id="line2d_9">
      <g>
       <use xlink:href="#mde2ddd1f56" x="63.479453" y="233.761032" style="fill: #1f2937; stroke: #1f2937; stroke-width: 2"/>
      </g>
     </g>
     <g id="text_10">
      <text style="fill: #1f2937; font: 11.5px 'Helvetica Neue', 'Helvetica', 'Arial', 'DejaVu Sans'; text-anchor: end" x="53.479453" y="237.866891" transform="rotate(-0 53.479453 237.866891)">60%</text>
     </g>
    </g>
    <g id="ytick_3">
     <g id="line2d_10">
      <g>
       <use xlink:href="#mde2ddd1f56" x="63.479453" y="178.147239" style="fill: #1f2937; stroke: #1f2937; stroke-width: 2"/>
      </g>
     </g>
     <g id="text_11">
      <text style="fill: #1f2937; font: 11.5px 'Helvetica Neue', 'Helvetica', 'Arial', 'DejaVu Sans'; text-anchor: end" x="53.479453" y="182.253098" transform="rotate(-0 53.479453 182.253098)">70%</text>
     </g>
    </g>
    <g id="ytick_4">
     <g id="line2d_11">
      <g>
       <use xlink:href="#mde2ddd1f56" x="63.479453" y="122.533446" style="fill: #1f2937; stroke: #1f2937; stroke-width: 2"/>
      </g>
     </g>
     <g id="text_12">
      <text style="fill: #1f2937; font: 11.5px 'Helvetica Neue', 'Helvetica', 'Arial', 'DejaVu Sans'; text-anchor: end" x="53.479453" y="126.639305" transform="rotate(-0 53.479453 126.639305)">80%</text>
     </g>
    </g>
    <g id="ytick_5">
     <g id="line2d_12">
      <g>
       <use xlink:href="#mde2ddd1f56" x="63.479453" y="66.919652" style="fill: #1f2937; stroke: #1f2937; stroke-width: 2"/>
      </g>
     </g>
     <g id="text_13">
      <text style="fill: #1f2937; font: 11.5px 'Helvetica Neue', 'Helvetica', 'Arial', 'DejaVu Sans'; text-anchor: end" x="53.479453" y="71.025512" transform="rotate(-0 53.479453 71.025512)">90%</text>
     </g>
    </g>
    <g id="ytick_6">
     <g id="line2d_13">
      <g>
       <use xlink:href="#mde2ddd1f56" x="63.479453" y="11.305859" style="fill: #1f2937; stroke: #1f2937; stroke-width: 2"/>
      </g>
     </g>
     <g id="text_14">
      <text style="fill: #1f2937; font: 11.5px 'Helvetica Neue', 'Helvetica', 'Arial', 'DejaVu Sans'; text-anchor: end" x="53.479453" y="15.411719" transform="rotate(-0 53.479453 15.411719)">100%</text>
     </g>
    </g>
    <g id="text_15">
     <text style="fill: #0f172a; font: 12.5px 'Helvetica Neue', 'Helvetica', 'Arial', 'DejaVu Sans'; text-anchor: middle" x="16.336719" y="172.585859" transform="rotate(-90 16.336719 172.585859)">Precision (within covered experiments)</text>
    </g>
   </g>
   <g id="LineCollection_1">
    <path d="M 506.696295 276.506442 
L 506.696295 276.506442 
" clip-path="url(#p6b063e53da)" style="fill: none; stroke: #94a3b8; stroke-width: 1.6"/>
   </g>
   <g id="LineCollection_2">
    <path d="M 506.696295 300.932587 
L 506.696295 252.277706 
" clip-path="url(#p6b063e53da)" style="fill: none; stroke: #94a3b8; stroke-width: 1.6"/>
   </g>
   <g id="line2d_14">
    <defs>
     <path id="m607b663a42" d="M 0 5 
L 0 -5 
" style="stroke: #94a3b8; stroke-width: 1.6"/>
    </defs>
    <g clip-path="url(#p6b063e53da)">
     <use xlink:href="#m607b663a42" x="506.696295" y="276.506442" style="fill: #94a3b8; stroke: #94a3b8; stroke-width: 1.6"/>
    </g>
   </g>
   <g id="line2d_15">
    <g clip-path="url(#p6b063e53da)">
     <use xlink:href="#m607b663a42" x="506.696295" y="276.506442" style="fill: #94a3b8; stroke: #94a3b8; stroke-width: 1.6"/>
    </g>
   </g>
   <g id="line2d_16">
    <defs>
     <path id="m5562a3050c" d="M 5 0 
L -5 -0 
" style="stroke: #94a3b8; stroke-width: 1.6"/>
    </defs>
    <g clip-path="url(#p6b063e53da)">
     <use xlink:href="#m5562a3050c" x="506.696295" y="300.932587" style="fill: #94a3b8; stroke: #94a3b8; stroke-width: 1.6"/>
    </g>
   </g>
   <g id="line2d_17">
    <g clip-path="url(#p6b063e53da)">
     <use xlink:href="#m5562a3050c" x="506.696295" y="252.277706" style="fill: #94a3b8; stroke: #94a3b8; stroke-width: 1.6"/>
    </g>
   </g>
   <g id="LineCollection_3">
    <path d="M 506.696295 280.982401 
L 506.696295 280.982401 
" clip-path="url(#p6b063e53da)" style="fill: none; stroke: #94a3b8; stroke-width: 1.6"/>
   </g>
   <g id="LineCollection_4">
    <path d="M 506.696295 305.389097 
L 506.696295 256.70445 
" clip-path="url(#p6b063e53da)" style="fill: none; stroke: #94a3b8; stroke-width: 1.6"/>
   </g>
   <g id="line2d_18">
    <g clip-path="url(#p6b063e53da)">
     <use xlink:href="#m607b663a42" x="506.696295" y="280.982401" style="fill: #94a3b8; stroke: #94a3b8; stroke-width: 1.6"/>
    </g>
   </g>
   <g id="line2d_19">
    <g clip-path="url(#p6b063e53da)">
     <use xlink:href="#m607b663a42" x="506.696295" y="280.982401" style="fill: #94a3b8; stroke: #94a3b8; stroke-width: 1.6"/>
    </g>
   </g>
   <g id="line2d_20">
    <g clip-path="url(#p6b063e53da)">
     <use xlink:href="#m5562a3050c" x="506.696295" y="305.389097" style="fill: #94a3b8; stroke: #94a3b8; stroke-width: 1.6"/>
    </g>
   </g>
   <g id="line2d_21">
    <g clip-path="url(#p6b063e53da)">
     <use xlink:href="#m5562a3050c" x="506.696295" y="256.70445" style="fill: #94a3b8; stroke: #94a3b8; stroke-width: 1.6"/>
    </g>
   </g>
   <g id="LineCollection_5">
    <path d="M 506.696295 275.387452 
L 506.696295 275.387452 
" clip-path="url(#p6b063e53da)" style="fill: none; stroke: #94a3b8; stroke-width: 1.6"/>
   </g>
   <g id="LineCollection_6">
    <path d="M 506.696295 299.817479 
L 506.696295 251.172 
" clip-path="url(#p6b063e53da)" style="fill: none; stroke: #94a3b8; stroke-width: 1.6"/>
   </g>
   <g id="line2d_22">
    <g clip-path="url(#p6b063e53da)">
     <use xlink:href="#m607b663a42" x="506.696295" y="275.387452" style="fill: #94a3b8; stroke: #94a3b8; stroke-width: 1.6"/>
    </g>
   </g>
   <g id="line2d_23">
    <g clip-path="url(#p6b063e53da)">
     <use xlink:href="#m607b663a42" x="506.696295" y="275.387452" style="fill: #94a3b8; stroke: #94a3b8; stroke-width: 1.6"/>
    </g>
   </g>
   <g id="line2d_24">
    <g clip-path="url(#p6b063e53da)">
     <use xlink:href="#m5562a3050c" x="506.696295" y="299.817479" style="fill: #94a3b8; stroke: #94a3b8; stroke-width: 1.6"/>
    </g>
   </g>
   <g id="line2d_25">
    <g clip-path="url(#p6b063e53da)">
     <use xlink:href="#m5562a3050c" x="506.696295" y="251.172" style="fill: #94a3b8; stroke: #94a3b8; stroke-width: 1.6"/>
    </g>
   </g>
   <g id="LineCollection_7">
    <path d="M 318.091264 181.27831 
L 367.557577 181.27831 
" clip-path="url(#p6b063e53da)" style="fill: none; stroke: #94a3b8; stroke-width: 1.6"/>
   </g>
   <g id="LineCollection_8">
    <path d="M 344.076789 208.271121 
L 344.076789 156.489415 
" clip-path="url(#p6b063e53da)" style="fill: none; stroke: #94a3b8; stroke-width: 1.6"/>
   </g>
   <g id="line2d_26">
    <g clip-path="url(#p6b063e53da)">
     <use xlink:href="#m607b663a42" x="318.091264" y="181.27831" style="fill: #94a3b8; stroke: #94a3b8; stroke-width: 1.6"/>
    </g>
   </g>
   <g id="line2d_27">
    <g clip-path="url(#p6b063e53da)">
     <use xlink:href="#m607b663a42" x="367.557577" y="181.27831" style="fill: #94a3b8; stroke: #94a3b8; stroke-width: 1.6"/>
    </g>
   </g>
   <g id="line2d_28">
    <g clip-path="url(#p6b063e53da)">
     <use xlink:href="#m5562a3050c" x="344.076789" y="208.271121" style="fill: #94a3b8; stroke: #94a3b8; stroke-width: 1.6"/>
    </g>
   </g>
   <g id="line2d_29">
    <g clip-path="url(#p6b063e53da)">
     <use xlink:href="#m5562a3050c" x="344.076789" y="156.489415" style="fill: #94a3b8; stroke: #94a3b8; stroke-width: 1.6"/>
    </g>
   </g>
   <g id="LineCollection_9">
    <path d="M 155.51454 84.423595 
L 212.595519 84.423595 
" clip-path="url(#p6b063e53da)" style="fill: none; stroke: #94a3b8; stroke-width: 1.6"/>
   </g>
   <g id="LineCollection_10">
    <path d="M 184.080177 110.792625 
L 184.080177 64.233624 
" clip-path="url(#p6b063e53da)" style="fill: none; stroke: #94a3b8; stroke-width: 1.6"/>
   </g>
   <g id="line2d_30">
    <g clip-path="url(#p6b063e53da)">
     <use xlink:href="#m607b663a42" x="155.51454" y="84.423595" style="fill: #94a3b8; stroke: #94a3b8; stroke-width: 1.6"/>
    </g>
   </g>
   <g id="line2d_31">
    <g clip-path="url(#p6b063e53da)">
     <use xlink:href="#m607b663a42" x="212.595519" y="84.423595" style="fill: #94a3b8; stroke: #94a3b8; stroke-width: 1.6"/>
    </g>
   </g>
   <g id="line2d_32">
    <g clip-path="url(#p6b063e53da)">
     <use xlink:href="#m5562a3050c" x="184.080177" y="110.792625" style="fill: #94a3b8; stroke: #94a3b8; stroke-width: 1.6"/>
    </g>
   </g>
   <g id="line2d_33">
    <g clip-path="url(#p6b063e53da)">
     <use xlink:href="#m5562a3050c" x="184.080177" y="64.233624" style="fill: #94a3b8; stroke: #94a3b8; stroke-width: 1.6"/>
    </g>
   </g>
   <g id="LineCollection_11">
    <path d="M 86.649345 182.641283 
L 142.476659 182.641283 
" clip-path="url(#p6b063e53da)" style="fill: none; stroke: #94a3b8; stroke-width: 1.6"/>
   </g>
   <g id="LineCollection_12">
    <path d="M 114.052034 220.154561 
L 114.052034 149.190869 
" clip-path="url(#p6b063e53da)" style="fill: none; stroke: #94a3b8; stroke-width: 1.6"/>
   </g>
   <g id="line2d_34">
    <g clip-path="url(#p6b063e53da)">
     <use xlink:href="#m607b663a42" x="86.649345" y="182.641283" style="fill: #94a3b8; stroke: #94a3b8; stroke-width: 1.6"/>
    </g>
   </g>
   <g id="line2d_35">
    <g clip-path="url(#p6b063e53da)">
     <use xlink:href="#m607b663a42" x="142.476659" y="182.641283" style="fill: #94a3b8; stroke: #94a3b8; stroke-width: 1.6"/>
    </g>
   </g>
   <g id="line2d_36">
    <g clip-path="url(#p6b063e53da)">
     <use xlink:href="#m5562a3050c" x="114.052034" y="220.154561" style="fill: #94a3b8; stroke: #94a3b8; stroke-width: 1.6"/>
    </g>
   </g>
   <g id="line2d_37">
    <g clip-path="url(#p6b063e53da)">
     <use xlink:href="#m5562a3050c" x="114.052034" y="149.190869" style="fill: #94a3b8; stroke: #94a3b8; stroke-width: 1.6"/>
    </g>
   </g>
   <g id="patch_3">
    <path d="M 63.479453 333.865859 
L 63.479453 11.305859 
" style="fill: none; stroke: #1f2937; stroke-width: 2; stroke-linejoin: miter; stroke-linecap: square"/>
   </g>
   <g id="patch_4">
    <path d="M 63.479453 333.865859 
L 558.839453 333.865859 
" style="fill: none; stroke: #1f2937; stroke-width: 2; stroke-linejoin: miter; stroke-linecap: square"/>
   </g>
   <g id="PathCollection_1">
    <defs>
     <path id="m30f56ed138" d="M 0 6.708204 
C 1.779036 6.708204 3.485448 6.001385 4.743416 4.743416 
C 6.001385 3.485448 6.708204 1.779036 6.708204 0 
C 6.708204 -1.779036 6.001385 -3.485448 4.743416 -4.743416 
C 3.485448 -6.001385 1.779036 -6.708204 0 -6.708204 
C -1.779036 -6.708204 -3.485448 -6.001385 -4.743416 -4.743416 
C -6.001385 -3.485448 -6.708204 -1.779036 -6.708204 0 
C -6.708204 1.779036 -6.001385 3.485448 -4.743416 4.743416 
C -3.485448 6.001385 -1.779036 6.708204 0 6.708204 
z
" style="stroke: #ffffff; stroke-width: 1.5"/>
    </defs>
    <g clip-path="url(#p6b063e53da)">
     <use xlink:href="#m30f56ed138" x="506.696295" y="276.506442" style="fill: #3b82f6; stroke: #ffffff; stroke-width: 1.5"/>
    </g>
   </g>
   <g id="PathCollection_2">
    <defs>
     <path id="mcb8254726c" d="M 0 6.708204 
C 1.779036 6.708204 3.485448 6.001385 4.743416 4.743416 
C 6.001385 3.485448 6.708204 1.779036 6.708204 0 
C 6.708204 -1.779036 6.001385 -3.485448 4.743416 -4.743416 
C 3.485448 -6.001385 1.779036 -6.708204 0 -6.708204 
C -1.779036 -6.708204 -3.485448 -6.001385 -4.743416 -4.743416 
C -6.001385 -3.485448 -6.708204 -1.779036 -6.708204 0 
C -6.708204 1.779036 -6.001385 3.485448 -4.743416 4.743416 
C -3.485448 6.001385 -1.779036 6.708204 0 6.708204 
z
" style="stroke: #ffffff; stroke-width: 1.5"/>
    </defs>
    <g clip-path="url(#p6b063e53da)">
     <use xlink:href="#mcb8254726c" x="506.696295" y="280.982401" style="fill: #6366f1; stroke: #ffffff; stroke-width: 1.5"/>
    </g>
   </g>
   <g id="PathCollection_3">
    <defs>
     <path id="m5e8d538177" d="M 0 6.708204 
C 1.779036 6.708204 3.485448 6.001385 4.743416 4.743416 
C 6.001385 3.485448 6.708204 1.779036 6.708204 0 
C 6.708204 -1.779036 6.001385 -3.485448 4.743416 -4.743416 
C 3.485448 -6.001385 1.779036 -6.708204 0 -6.708204 
C -1.779036 -6.708204 -3.485448 -6.001385 -4.743416 -4.743416 
C -6.001385 -3.485448 -6.708204 -1.779036 -6.708204 0 
C -6.708204 1.779036 -6.001385 3.485448 -4.743416 4.743416 
C -3.485448 6.001385 -1.779036 6.708204 0 6.708204 
z
" style="stroke: #ffffff; stroke-width: 1.5"/>
    </defs>
    <g clip-path="url(#p6b063e53da)">
     <use xlink:href="#m5e8d538177" x="506.696295" y="275.387452" style="fill: #f59e0b; stroke: #ffffff; stroke-width: 1.5"/>
    </g>
   </g>
   <g id="PathCollection_4">
    <defs>
     <path id="md816acc17a" d="M 0 6.708204 
C 1.779036 6.708204 3.485448 6.001385 4.743416 4.743416 
C 6.001385 3.485448 6.708204 1.779036 6.708204 0 
C 6.708204 -1.779036 6.001385 -3.485448 4.743416 -4.743416 
C 3.485448 -6.001385 1.779036 -6.708204 0 -6.708204 
C -1.779036 -6.708204 -3.485448 -6.001385 -4.743416 -4.743416 
C -6.001385 -3.485448 -6.708204 -1.779036 -6.708204 0 
C -6.708204 1.779036 -6.001385 3.485448 -4.743416 4.743416 
C -3.485448 6.001385 -1.779036 6.708204 0 6.708204 
z
" style="stroke: #ffffff; stroke-width: 1.5"/>
    </defs>
    <g clip-path="url(#p6b063e53da)">
     <use xlink:href="#md816acc17a" x="344.076789" y="181.27831" style="fill: #059669; stroke: #ffffff; stroke-width: 1.5"/>
    </g>
   </g>
   <g id="PathCollection_5">
    <defs>
     <path id="mf63a55e3e0" d="M 0 6.708204 
C 1.779036 6.708204 3.485448 6.001385 4.743416 4.743416 
C 6.001385 3.485448 6.708204 1.779036 6.708204 0 
C 6.708204 -1.779036 6.001385 -3.485448 4.743416 -4.743416 
C 3.485448 -6.001385 1.779036 -6.708204 0 -6.708204 
C -1.779036 -6.708204 -3.485448 -6.001385 -4.743416 -4.743416 
C -6.001385 -3.485448 -6.708204 -1.779036 -6.708204 0 
C -6.708204 1.779036 -6.001385 3.485448 -4.743416 4.743416 
C -3.485448 6.001385 -1.779036 6.708204 0 6.708204 
z
" style="stroke: #ffffff; stroke-width: 1.5"/>
    </defs>
    <g clip-path="url(#p6b063e53da)">
     <use xlink:href="#mf63a55e3e0" x="184.080177" y="84.423595" style="fill: #10b981; stroke: #ffffff; stroke-width: 1.5"/>
    </g>
   </g>
   <g id="PathCollection_6">
    <defs>
     <path id="md744cc07b3" d="M -0 9.486833 
L 9.486833 0 
L 0 -9.486833 
L -9.486833 -0 
z
" style="stroke: #ffffff; stroke-width: 1.5"/>
    </defs>
    <g clip-path="url(#p6b063e53da)">
     <use xlink:href="#md744cc07b3" x="114.052034" y="182.641283" style="fill: #db2777; stroke: #ffffff; stroke-width: 1.5"/>
    </g>
   </g>
   <g id="text_16">
    <text style="fill: #0f172a; font: 12px 'Helvetica Neue', 'Helvetica', 'Arial', 'DejaVu Sans'; text-anchor: end" x="496.919453" y="257.457929" transform="rotate(-0 496.919453 257.457929)">Sonnet 4.6 alone</text>
   </g>
   <g id="text_17">
    <text style="fill: #0f172a; font: 12px 'Helvetica Neue', 'Helvetica', 'Arial', 'DejaVu Sans'; text-anchor: end" x="496.919453" y="309.218479" transform="rotate(-0 496.919453 309.218479)">Opus 4.7 alone</text>
   </g>
   <g id="text_18">
    <text style="fill: #0f172a; font: 12px 'Helvetica Neue', 'Helvetica', 'Arial', 'DejaVu Sans'; text-anchor: end" x="496.919453" y="278.48964" transform="rotate(-0 496.919453 278.48964)">GPT-4o alone</text>
   </g>
   <g id="text_19">
    <text style="fill: #0f172a; font: 12px 'Helvetica Neue', 'Helvetica', 'Arial', 'DejaVu Sans'; text-anchor: end" x="331.040999" y="164.890487" transform="rotate(-0 331.040999 164.890487)">2-of-3 majority</text>
   </g>
   <g id="text_20">
    <text style="fill: #0f172a; font: 12px 'Helvetica Neue', 'Helvetica', 'Arial', 'DejaVu Sans'; text-anchor: start" x="197.115967" y="68.011397" transform="rotate(-0 197.115967 68.011397)">All three agree</text>
   </g>
   <g id="text_21">
    <text style="fill: #0f172a; font: 12px 'Helvetica Neue', 'Helvetica', 'Arial', 'DejaVu Sans'; text-anchor: start" x="127.087823" y="185.84472" transform="rotate(-0 127.087823 185.84472)">MetaMuse-GPT-4o (cell_line)</text>
   </g>
   <g id="patch_5">
    <path d="M 498.09564 272.597299 
Q 425.548099 229.589756 354.154647 187.266379 
" style="fill: none; stroke: #cbd5e1; stroke-width: 1.2; stroke-linecap: round"/>
    <path d="M 357.301858 192.154636 
L 354.154647 187.266379 
L 359.953579 187.681564 
" style="fill: none; stroke: #cbd5e1; stroke-width: 1.2; stroke-linecap: round"/>
   </g>
   <g id="patch_6">
    <path d="M 335.849858 176.293822 
Q 264.229585 132.821374 193.756209 90.045077 
" style="fill: none; stroke: #cbd5e1; stroke-width: 1.2; stroke-linecap: round"/>
    <path d="M 196.852328 94.965854 
L 193.756209 90.045077 
L 199.550502 90.520648 
" style="fill: none; stroke: #cbd5e1; stroke-width: 1.2; stroke-linecap: round"/>
   </g>
  </g>
 </g>
 <defs>
  <clipPath id="p6b063e53da">
   <rect x="63.479453" y="11.305859" width="495.36" height="322.56"/>
  </clipPath>
 </defs>
</svg>
